<?xml version="1.0" encoding="UTF-8"?>
<svg id="Layer_1" xmlns="http://www.w3.org/2000/svg" version="1.1" viewBox="0 0 976.65 302.9">
  <!-- Generator: Adobe Illustrator 29.6.1, SVG Export Plug-In . SVG Version: 2.1.1 Build 9)  -->
  <defs>
    <style>
      .st0 {
        fill: #991e74;
      }

      .st0, .st1, .st2, .st3, .st4, .st5, .st6, .st7, .st8, .st9, .st10, .st11, .st12, .st13, .st14, .st15, .st16, .st17, .st18, .st19, .st20, .st21, .st22, .st23, .st24, .st25, .st26, .st27, .st28, .st29, .st30, .st31, .st32 {
        fill-rule: evenodd;
      }

      .st1 {
        fill: #ff4788;
      }

      .st2 {
        fill: #ff7795;
      }

      .st3 {
        fill: #ff827a;
      }

      .st4 {
        fill: #ff609e;
      }

      .st5 {
        fill: #bf1866;
      }

      .st33 {
        fill: none;
        stroke: red;
        stroke-miterlimit: 10;
        stroke-width: .3px;
      }

      .st6, .st34 {
        fill: #a72d7d;
      }

      .st7 {
        fill: #a42578;
      }

      .st8 {
        fill: #ff0092;
      }

      .st9 {
        fill: #ff6d6e;
      }

      .st10 {
        fill: #ff7ab9;
      }

      .st11 {
        fill: #ff49b1;
      }

      .st12 {
        fill: #ff56af;
      }

      .st13 {
        fill: #ff8c7a;
      }

      .st14 {
        fill: #ff75b1;
      }

      .st15 {
        fill: #af1664;
      }

      .st16 {
        fill: #aa007f;
      }

      .st17 {
        fill: #a4277a;
      }

      .st18 {
        fill: #ff5668;
      }

      .st19 {
        fill: #c42475;
      }

      .st20 {
        fill: #ff4491;
      }

      .st21 {
        fill: #ea238c;
      }

      .st22 {
        fill: #ff606d;
      }

      .st23 {
        fill: #ff9e84;
      }

      .st24 {
        fill: #ff7092;
      }

      .st25 {
        fill: #ff1a73;
      }

      .st26 {
        fill: #a52472;
      }

      .st27 {
        fill: #ff74b8;
      }

      .st28 {
        fill: #ff7cb6;
      }

      .st29 {
        fill: #ff4f91;
      }

      .st30 {
        fill: #ff70b5;
      }

      .st31 {
        fill: #ff9b83;
      }

      .st32 {
        fill: #ff639b;
      }
    </style>
  </defs>
  <g>
    <path class="st34" d="M410.06,212.4c0,3.55,0,6.65.46,9.97,0,.46,0,.57-.46.8-15.01,7.11-26.82,8.94-38.85,8.94-22,0-38.62-10.77-38.62-32.66s20.63-31.86,46.3-31.86,12.03.23,14.33.46v-5.04c0-6.42-3.09-20.74-23.49-20.74s-19.14,2.29-26.36,6.19c-.57.23-1.49,0-1.49-1.03v-12.72c0-.8.46-1.26,1.03-1.72,8.14-3.9,18.45-6.19,29.57-6.19,26.59,0,37.59,17.42,37.59,39.08v46.53h0ZM393.21,181.8c-2.87-.46-7.45-.8-13.75-.8-20.17,0-29.91,6.88-29.91,18.45s6.42,18.45,24.76,18.45,12.84-1.03,18.91-3.55v-32.66.11h0Z"/>
    <path class="st34" d="M497.5,227.3c0,.8,0,1.26-.8,1.49-6.88,2.75-15.01,3.32-22.69,3.32-33.92,0-51.34-24.07-51.34-52.15s21.66-52.95,54.21-52.95,16.39,1.26,19.71,2.75c.8.46.8.8.8,1.83v13.07c0,1.03-.57,1.03-1.49.8-5.16-2.06-10.66-3.09-19.14-3.09-21.43,0-36.56,14.33-36.56,37.02s17.31,37.25,36.56,37.25,14.1-.8,19.37-2.87c1.03-.23,1.26.23,1.26.8v12.84l.11-.11h0Z"/>
    <path class="st34" d="M566.73,227.18c0,.8-.23,1.72-1.26,2.06-4.81,2.06-9.97,2.87-15.59,2.87-15.13,0-24.3-7.22-24.3-27.28v-60.86h-14.1c-1.26-.23-1.49-.57-1.49-1.72v-11.8c0-1.03.46-1.49,1.49-1.49h14.1c.23-7.68,1.03-22,1.83-26.59.23-.8.57-1.26,1.49-1.49l14.1-2.29c.8-.23,1.26,0,1.26.8-.57,7.22-1.26,19.37-1.26,29.57h22c.8,0,1.26.46,1.26,1.49v12.26c0,.8-.46,1.26-1.26,1.26h-22v58.45c0,9.51,3.55,15.01,12.72,15.01s6.19-.46,9.74-1.72c.57-.23,1.26-.23,1.26.8v10.66h0Z"/>
    <path class="st34" d="M643.29,82.89h26.82l64.07,147.16h-36.56l-12.72-31.17h-57.19l-12.26,31.17h-35.76s63.61-147.16,63.61-147.16ZM655.78,125.64l-17.88,45.73h35.99l-18.11-45.73h0Z"/>
    <path class="st34" d="M706.67,82.89h37.02l36.33,96.5h.46l37.02-96.5h34.73l-60.74,147.16h-26.02s-58.79-147.16-58.79-147.16Z"/>
    <path class="st34" d="M886.03,82.89h26.82l64.07,147.16h-36.56l-12.72-31.17h-57.19l-12.26,31.17h-35.76s63.61-147.16,63.61-147.16ZM898.52,125.64l-17.88,45.73h35.99l-18.11-45.73h0Z"/>
  </g>
  <g>
    <g>
      <path class="st18" d="M179.4,163.8h-11.9l.2.2.4.4c14.1,14.1,25.7,28.5,35.4,44.5l49-34.4c-23.2-10.2-49-10.7-73.1-10.7Z"/>
      <polyline class="st23" points="274.6 230.1 244.5 260.3 305.1 279"/>
      <path class="st13" d="M305.1,279c7.8-17.1,4.6-44.6-10.9-68.6l-19.6,19.7"/>
      <path class="st31" d="M244.5,260.3l-16.2,16.2c.5,4.5.8,8.6,1,12.5,26.9,12.6,55,11.1,67.5,1,3.5-2.8,6.3-6.6,8.3-11l-60.6-18.7h0Z"/>
      <path class="st3" d="M274.7,230l19.5-19.6c-3.8-5.8-8.2-11.4-13.5-16.7-5.2-5.2-10.7-9.5-16.5-13.1l-39.1,78.1c1.5,6.2,2.5,12.2,3.2,17.7l46.3-46.5"/>
      <path class="st9" d="M252.5,174.5l-49,34.4c6,10,11.3,20.6,15.9,32.2,2.4,6,4.2,12,5.6,17.7l39.1-78.1c-3.8-2.4-7.7-4.4-11.7-6.2h.1,0Z"/>
      <path class="st22" d="M219.5,241.1c-3.7-9.3-7.8-18-12.5-26.3-10.3-18.4-23.1-34.6-38.9-50.4l-.4-.4-.2-.2v11.2c0,18.6,3.5,42.6,13,63.9,4.6,10.4,10.7,20.1,18.5,28.3,9.3,9.7,19.7,16.9,30.3,21.8-.5-12.9-2.8-30.2-9.8-47.9h0Z"/>
    </g>
    <g>
      <path class="st2" d="M65.5,190.7l-8.5-4.5c-2.9,2.3-5.7,4.8-8.5,7.5-10.8,10.8-18.4,23.3-23,35.7,7.8,13.8,22.5,39.9,22.7,40l17.3-78.7Z"/>
      <path class="st29" d="M93.6,291.7c2.1-.8,4.2-1.7,6.3-2.7.4-10.2,1.9-23,6-36.7l-57.7,17.2s45.4,22.2,45.4,22.2Z"/>
      <path class="st24" d="M48.2,269.5l-20.4,15.8c1.4,1.8,2.9,3.4,4.6,4.8,11.5,9.3,36.3,11.3,61.1,1.7l-45.4-22.2.1-.1h0Z"/>
      <path class="st32" d="M113.6,232.2l-48.1-41.5-17.3,78.7,57.7-17.2c1.1-3.7,2.4-7.5,3.9-11.2,1.2-3,2.5-6,3.8-8.9v.1h0Z"/>
      <path class="st33" d="M113.6,232.2h0Z"/>
      <path class="st1" d="M25.5,229.5c-1.3,3.6-2.4,7.2-3.3,10.8-3.7,15.8-2.5,30.7,3.1,41,.8,1.4,1.6,2.7,2.5,3.9l20.4-15.8c-.2,0-14.9-26.2-22.7-40v.1Z"/>
      <path class="st25" d="M148.4,239.6c.1-.3.2-.5.4-.8,9.5-21.3,13-45.3,13-63.9v-11.2l-.2.2-.4.4c-15.8,15.8-28.6,32-38.9,50.4-4.6,8.2-8.8,16.9-12.5,26.3-1.5,3.8-2.8,7.6-3.9,11.3l42.5-12.7h0Z"/>
      <path class="st25" d="M105.9,252.4c-4,13.6-5.5,26.4-5.9,36.6,10.6-5,21.1-12.1,30.4-21.8,7.6-8,13.5-17.4,18.1-27.5l-42.5,12.7h-.1Z"/>
      <path class="st20" d="M69.3,178.2c-4.2,2.3-8.2,5-12.2,8l8.5,4.5,3.7-12.5Z"/>
      <path class="st4" d="M65.5,190.7l61.6-26.5c-19.8,1-39.8,4-57.9,14l-3.7,12.5Z"/>
      <path class="st20" d="M161.6,164l.2-.2h-11.9c-7.5,0-15.1,0-22.8.4l-61.6,26.5,48,41.4c11.6-26,27-47.2,47.6-67.8l.4-.4.1.1h0Z"/>
    </g>
    <g>
      <path class="st15" d="M141.4,66.4c-4.9-8.7-11-17.2-18.6-25.3-2-2.1-4-4.1-6.1-6l-29.1,37.8,53.8-6.5Z"/>
      <path class="st17" d="M39.1,99.4l-7.5-17.6L2.5,39.4c-2.8,18.6,4.4,41.1,15.2,59.4,6.1-.2,13.3,0,21.3.6h.1Z"/>
      <path class="st19" d="M92,112.3c2.5,1,5,2.1,7.4,3.2-14.1-23.9-11.8-42.5-11.8-42.5l-16.2,32.4c6.6,1.8,13.5,4.1,20.6,7,0,0,0-.1,0-.1Z"/>
      <path class="st0" d="M90,16.4C62.4,2.2,33.2,1.1,17.2,13.4c-8.4,6.5-12.9,15.3-14.5,25.3l78.9-6.6,8.4-15.8s0,.1,0,.1Z"/>
      <path class="st6" d="M81.6,32.1L2.6,38.7c0,.2,0,.4-.1.7l29.1,42.5,49.9-49.7s.1-.1.1-.1Z"/>
      <path class="st7" d="M87.6,73l-56,8.9,7.5,17.6c9.7.9,20.6,2.6,32.3,5.9,0,0,16.2-32.4,16.2-32.4Z"/>
      <path class="st16" d="M108,27.8c-5.8-4.5-11.9-8.3-18.1-11.4l-8.3,15.6,26.3-4.1s.1-.1.1-.1Z"/>
      <path class="st26" d="M81.7,31.9v.2c-.1,0,5.9,40.8,5.9,40.8l29.1-37.8c-2.8-2.6-5.8-5.1-8.7-7.4l-26.3,4.1v.1Z"/>
      <polygon class="st6" points="81.6 32.1 31.6 81.8 87.6 73 81.6 32.1"/>
      <path class="st19" d="M99.4,115.5c16.4,7.4,32.2,17.2,47.1,28.9l-58.8-71.4s-2.4,18.6,11.8,42.5c0,0-.1,0-.1,0Z"/>
      <path class="st5" d="M155.3,101.2c-3-11.5-7.5-23.3-14-34.8l-53.8,6.5s27.2,1.2,44.6,26.8c16.2,23.7,15.3,42.7,15,45.3.9.7,1.8,1.4,2.7,2.2,4,3.3,7.9,7,11.8,10.8h0c0-14.8-.7-35.2-6.4-56.8h.1,0Z"/>
      <path class="st5" d="M147.3,145c.2-2.6,1.1-21.6-15-45.3-17.4-25.5-44.6-26.8-44.6-26.8l58.8,71.4c.3.2.5.4.8.6v.1Z"/>
      <path class="st21" d="M17.8,98.8c5.2,8.8,11.4,16.7,17.7,22.7,6.5,6.2,13,11.3,19.7,15.6l-16-37.7c-8-.7-15.2-.8-21.3-.6,0,0-.1,0-.1,0Z"/>
      <path class="st21" d="M161.8,158c-3.8-3.8-7.8-7.5-11.8-10.8-18.1-14.8-37.6-26.6-58-34.9-7.1-2.9-14-5.2-20.6-7l-16.3,31.9c29.2,18.9,59.2,20.8,82.2,20.8h24.5Z"/>
      <path class="st33" d="M55.1,137.2h0Z"/>
      <path class="st21" d="M70.8,105.1c-.4,0-.7-.2-1.1-.3-.4-.1-.9-.2-1.3-.3-.4-.1-.8-.2-1.2-.3-.4,0-.7-.2-1.1-.3-1.7-.4-3.3-.8-5-1.1-.2,0-.4,0-.7-.1-.5-.1-1-.2-1.5-.3-.2,0-.5,0-.7-.1-.5-.1-1-.2-1.5-.3-.2,0-.5,0-.7-.1-.5,0-1-.2-1.5-.3h-.5c-1.7-.3-3.3-.6-4.9-.8-.3,0-.6,0-.9-.1-.4,0-.8-.1-1.2-.2-.3,0-.7,0-1-.1-.3,0-.7,0-1-.1-.4,0-.8,0-1.2-.1-.3,0-.6,0-.9-.1-.5,0-1-.1-1.5-.2h-.5c-.6,0-1.3-.1-1.9-.2l16,37.7h0l16.3-31.9c-.2,0-.4-.1-.6-.2,0,0,.1-.2.1-.2Z"/>
    </g>
    <g>
      <path class="st28" d="M306.5,9.8c-9.3-4.7-21.4-6-34.6-4.1l20.7,36.9s13.9-32.8,13.9-32.8Z"/>
      <path class="st12" d="M252.1,107c8.8-2.7,17.2-4.6,25.1-5.9h0l15.3-58.5-63.7-20.1,23.3,84.5Z"/>
      <path class="st11" d="M228.8,22.5c-7.9,5.1-15.5,11.4-22.3,18.7-36.2,38.5-38.9,88.2-38.9,116.9h0c3.8-3.8,7.8-7.5,11.8-10.8,18.1-14.8,37.6-26.6,58-34.9,5-2,10-3.8,14.8-5.3l-23.3-84.5s-.1-.1-.1-.1Z"/>
      <path class="st30" d="M315.8,90.9c8-15.8,12.8-33.7,11.2-49.2l-34.5.8,23.3,48.3v.1Z"/>
      <path class="st27" d="M271.9,5.7c-13.9,2-29,7.6-43,16.7l63.7,20.1-20.7-36.9v.1Z"/>
      <path class="st14" d="M277.2,101.1h0c13.4-2.2,25.1-2.6,34.3-2.3,1.5-2.6,3-5.2,4.3-7.9l-23.3-48.3s-15.3,58.5-15.3,58.5Z"/>
      <path class="st10" d="M327.1,41.8c-1.2-11.2-5.7-21.2-14.9-28.4-1.7-1.3-3.7-2.5-5.7-3.6l-13.9,32.8,34.5-.8Z"/>
      <path class="st8" d="M288.9,126.1c1.7-1.4,3.3-2.9,5-4.5,6.3-6,12.4-13.9,17.7-22.7-9.2-.3-20.9,0-34.3,2.3l11.7,25-.1-.1h0Z"/>
      <path class="st8" d="M277.2,101.1c-12.2,2-25.7,5.4-39.9,11.2-20.4,8.3-39.9,20.1-58,34.9-4,3.3-7.9,7-11.8,10.8h24.5c26.9,0,63.3-2.7,96.9-31.9l-11.7-25Z"/>
    </g>
  </g>
</svg>